<?xml version="1.0" encoding="UTF-8"?>
<svg fill="#B11E1B" width="100pt" height="100pt" version="1.1" viewBox="0 0 100 100" xmlns="http://www.w3.org/2000/svg">
 <g>
  <path d="m25 3.125c-6.9023 0-12.5 5.5977-12.5 12.5v41.422c-5.6602 3.9492-9.375 10.516-9.375 17.953 0 12.082 9.793 21.875 21.875 21.875s21.875-9.793 21.875-21.875c0-7.4375-3.7148-14.004-9.375-17.953v-41.422c0-6.9023-5.5977-12.5-12.5-12.5zm-3.082 63.02c-0.027344-0.16797-0.042969-0.34375-0.042969-0.51953v-37.5c0-1.7266 1.3984-3.125 3.125-3.125s3.125 1.3984 3.125 3.125v37.5c0 0.17578-0.015625 0.35156-0.042969 0.51953 3.6641 1.2734 6.293 4.7578 6.293 8.8555 0 5.1758-4.1992 9.375-9.375 9.375s-9.375-4.1992-9.375-9.375c0-4.0977 2.6289-7.582 6.293-8.8555z" fill-rule="evenodd"/>
  <path d="m58.082 6.25c0-1.7266-1.3984-3.125-3.125-3.125-1.7266 0-3.125 1.3984-3.125 3.125v4.6875c0 1.7266 1.3984 3.125 3.125 3.125 1.7266 0 3.125-1.3984 3.125-3.125z"/>
  <path d="m73.422 65.27c-6 6.0469-14.051 8.7812-21.902 8.2031-0.42578-7.5039-3.9688-14.168-9.332-18.727v-35.25c10.301-4.5977 22.793-2.6445 31.234 5.8594 10.949 11.023 10.949 28.891 0 39.914z"/>
  <path d="m84.59 15.473c1.2227 1.2188 1.2305 3.1953 0.015625 4.4219l-3.918 3.9453c-1.2188 1.2227-3.1953 1.2305-4.4219 0.015625-1.2227-1.2188-1.2305-3.1953-0.015625-4.4219l3.9219-3.9453c1.2148-1.2227 3.1914-1.2305 4.418-0.015625z"/>
  <path d="m88.207 42.188c-1.7266 0-3.125 1.3984-3.125 3.125s1.3984 3.125 3.125 3.125h5.543c1.7266 0 3.125-1.3984 3.125-3.125s-1.3984-3.125-3.125-3.125z"/>
  <path d="m80.688 66.785c-1.2188-1.2227-3.1953-1.2305-4.4219-0.015625-1.2227 1.2188-1.2305 3.1953-0.015625 4.4219l3.9219 3.9453c1.2148 1.2227 3.1914 1.2305 4.418 0.015625 1.2227-1.2188 1.2305-3.1953 0.015625-4.4219z"/>
  <path d="m58.082 78.793c0-1.7227-1.3984-3.125-3.125-3.125-1.7266 0-3.125 1.4023-3.125 3.125v5.582c0 1.7266 1.3984 3.125 3.125 3.125 1.7266 0 3.125-1.3984 3.125-3.125z"/>
 </g>
</svg>
